DARKENING SKY 2011 - MPEG4 - HIGH QUALITY

Screens : http://s12.postimage.org/6jz8u6dvh/DARKNING_SKY_2011_MPEG4_HIGH_QUALITY_mp4_thu.jpg

Sample : http://www.filesonic.in/file/4218719365 

Format                           : MPEG-4
Codec ID                         : MSNV
File size                        : 714 MiB
Duration                         : 1h 24mn
Overall bit rate mode            : Variable
Overall bit rate                 : 1 188 Kbps
Encoded date                     : UTC 2011-12-14 14:05:42
Tagged date                      : UTC 2011-12-14 14:05:42

Video
ID                               : 1
Format                           : AVC
Format/Info                      : Advanced Video Codec
Format profile                   : Main@L3.1
Format settings, CABAC           : Yes
Format settings, ReFrames        : 2 frames
Format settings, GOP             : M=2, N=29
Codec ID                         : avc1
Codec ID/Info                    : Advanced Video Coding
Duration                         : 1h 24mn
Bit rate mode                    : Variable
Bit rate                         : 1 052 Kbps
Maximum bit rate                 : 1 550 Kbps
Width                            : 640 pixels
Height                           : 480 pixels
Display aspect ratio             : 16:9
Frame rate mode                  : Constant
Frame rate                       : 60.000 fps
Color space                      : YUV
Chroma subsampling               : 4:2:0
Bit depth                        : 8 bits
Scan type                        : Progressive
Bits/(Pixel*Frame)               : 0.057
Stream size                      : 632 MiB (89%)
Language                         : English
Encoded date                     : UTC 2011-12-14 14:05:42
Tagged date                      : UTC 2011-12-14 14:05:42

Audio
ID                               : 2
Format                           : AAC
Format/Info                      : Advanced Audio Codec
Format profile                   : LC
Codec ID                         : 40
Duration                         : 1h 24mn
Bit rate mode                    : Constant
Bit rate                         : 128 Kbps
Channel(s)                       : 2 channels
Channel positions                : Front: L R
Sampling rate                    : 48.0 KHz
Compression mode                 : Lossy
Stream size                      : 76.9 MiB (11%)
Language                         : English
Encoded date                     : UTC 2011-12-14 14:05:42
Tagged date                      : UTC 2011-12-14 14:05:42
Material_Duration                : 5042582
Material_StreamSize              : 80661127
